# xmcd
#
# Track frame offsets:
#	150
#	28562
#	60386
#	80616
#	103284
#	123053
#	136723
#	156687
#	183872
#	211641
#	231581
#	256148
#	274289
#	302552
#	323182
#
# Disc length: 4565 seconds
#
# Revision: 1
# Processed by: cddbd v1.5.2PL0 Copyright (c) Steve Scherf et al.
# Submitted via: audiograbber 1.83.01
#
DISCID=cb11d30f
DTITLE=Various Artist - Braindead 2000 cd2
DYEAR=2000
DGENRE=Hardcore, Gabber
TTITLE0=Biochip C - 2000 And Bang!
TTITLE1=Napalm - The Dawn Of New Error
TTITLE2=Yam Yam - Mask Or Die
TTITLE3=Multipara - Pocket Monster (Napalm Remix)
TTITLE4=Akira 101 - Overlords
TTITLE5=Jet Jaguar - Furo (Nerdcore Edit)
TTITLE6=Moldiver - Seiki Ni Koi Wo Shite (2K Remix)
TTITLE7=The Speed Freak vs Launch Pad - Hold On!
TTITLE8=Biochip C - Sleepless In Osaka
TTITLE9=Cromatic Destroyer - Cosm
TTITLE10=The Shapeshifter - We Are The Borg (Oldschool Darling Remix)
TTITLE11=C-Type - Tokyo Boogie Pop
TTITLE12=Search and Destroy - Destroy, My Robots!
TTITLE13=Napalm - The Final Chapter
TTITLE14=Random Rampage - Viva!
EXTD=
EXTT0=
EXTT1=
EXTT2=
EXTT3=
EXTT4=
EXTT5=
EXTT6=
EXTT7=
EXTT8=
EXTT9=
EXTT10=
EXTT11=
EXTT12=
EXTT13=
EXTT14=
PLAYORDER=
